<svg width="467" height="216" viewBox="0 0 467 216" fill="none" xmlns="http://www.w3.org/2000/svg">
<path d="M0.43711 216V43.2C0.43711 35.2 2.33711 28 6.13711 21.6C10.1371 15 15.3371 9.79998 21.7371 5.99999C28.3371 1.99999 35.6371 -8.58307e-06 43.6371 -8.58307e-06H172.937C180.937 -8.58307e-06 188.137 1.99999 194.537 5.99999C201.137 9.79998 206.437 15 210.437 21.6C214.437 28 216.437 35.2 216.437 43.2V216H172.637V144.9H43.6371V216H0.43711ZM43.6371 101.7H172.637V45.3C172.637 44.7 172.437 44.3 172.037 44.1C171.837 43.7 171.437 43.5 170.837 43.5H45.4371C44.8371 43.5 44.3371 43.7 43.9371 44.1C43.7371 44.3 43.6371 44.7 43.6371 45.3V101.7ZM292.918 216C285.118 216 277.918 214.1 271.318 210.3C264.718 206.3 259.518 201.1 255.718 194.7C251.918 188.1 250.018 180.8 250.018 172.8V154.5H293.218V170.7C293.218 171.3 293.318 171.8 293.518 172.2C293.918 172.4 294.318 172.5 294.718 172.5H420.418C420.818 172.5 421.218 172.4 421.618 172.2C422.018 171.8 422.218 171.3 422.218 170.7V131.4C422.218 131 422.018 130.7 421.618 130.5C421.218 130.1 420.818 129.9 420.418 129.9H292.918C285.118 129.9 277.918 128 271.318 124.2C264.718 120.2 259.518 114.9 255.718 108.3C251.918 101.7 250.018 94.5 250.018 86.7V43.2C250.018 35.2 251.918 28 255.718 21.6C259.518 15 264.718 9.79998 271.318 5.99999C277.918 1.99999 285.118 -8.58307e-06 292.918 -8.58307e-06H422.818C430.618 -8.58307e-06 437.718 1.99999 444.118 5.99999C450.718 9.79998 456.018 15 460.018 21.6C464.018 28 466.018 35.2 466.018 43.2V61.5H422.218V45.3C422.218 44.7 422.018 44.3 421.618 44.1C421.218 43.7 420.818 43.5 420.418 43.5H294.718C294.318 43.5 293.918 43.7 293.518 44.1C293.318 44.3 293.218 44.7 293.218 45.3V84.6C293.218 85 293.318 85.4 293.518 85.8C293.918 86 294.318 86.1 294.718 86.1H422.818C430.618 86.1 437.718 88.1 444.118 92.1C450.718 95.9 456.018 101.1 460.018 107.7C464.018 114.3 466.018 121.5 466.018 129.3V172.8C466.018 180.8 464.018 188.1 460.018 194.7C456.018 201.1 450.718 206.3 444.118 210.3C437.718 214.1 430.618 216 422.818 216H292.918Z" fill="white"/>
</svg>
